# xmcd CD database file
#
# Track frame offsets:
#	182
#	17380
#	38210
#	58202
#	78027
#	98690
#	119672
#	137255
#	155550
#	176442
#	197765
#	219200
#
# Disc length: 3193 seconds
#
# Revision: 0
# Processed by: cddbd v1.5.1PL2 Copyright (c) Steve Scherf et al.
# Submitted via: CDex 1.51
#
DISCID=920c770c
DTITLE=Los Titanes - Amor &Salsa
DYEAR=1991
DGENRE=Salsa
TTITLE0=Piensalo
TTITLE1=Pecadora
TTITLE2=Qiero Saciarme de ti
TTITLE3=Te la estan Jugando
TTITLE4=No me vuelvo a enamorar
TTITLE5=Tuyo
TTITLE6=Aguacero de Tormentos
TTITLE7=Suave
TTITLE8=Flechame
TTITLE9=Todo el amor que te falta
TTITLE10=Mia
TTITLE11=Embriagame
EXTD=YEAR: 1991
EXTT0=
EXTT1=
EXTT2=
EXTT3=
EXTT4=
EXTT5=
EXTT6=
EXTT7=
EXTT8=
EXTT9=
EXTT10=
EXTT11=
PLAYORDER=
